# xmcd CD database file
#
# Track frame offsets:
#	150
#	48132
#	92344
#	125701
#	176006
#
# Disc length: 3182 seconds
#
# Revision: 0
# Processed by: cddbd v1.5.2PL0 Copyright (c) Steve Scherf et al.
# Submitted via: CDex 1.51
#
DISCID=370c6c05
DTITLE=Territory Band- 6 with Fred Anderson - Collide
DYEAR=2007
DGENRE=Jazz
TTITLE0=Part 1
TTITLE1=Part 2
TTITLE2=Part 3
TTITLE3=Part 4
TTITLE4=Part 5
EXTD=YEAR: 2007
EXTT0=
EXTT1=
EXTT2=
EXTT3=
EXTT4=
PLAYORDER=
